<svg width="376" height="100" viewBox="0 0 376 100" fill="none" xmlns="http://www.w3.org/2000/svg">
<g clip-path="url(#clip0_15_292)">
<path d="M34.4708 13.1589C31.2911 13.5925 28.1837 14.821 25.5532 16.7144C24.556 17.437 22.3013 19.605 21.5931 20.53C21.3184 20.8913 21.2606 20.9058 19.1505 20.9925C16.7657 21.0792 15.3493 21.3105 13.3548 21.9753C10.4208 22.9292 8.13719 24.3745 5.78133 26.7304C2.84734 29.6499 1.18523 32.7429 0.332499 36.8476C-0.0288298 38.5531 -0.0143767 42.3832 0.332499 44.0597C0.93953 46.8636 1.77781 48.9449 3.25203 51.1707C5.27547 54.2636 8.70086 57.1398 11.8372 58.3828L12.7188 58.7441V72.0121C12.7188 84.7453 12.7333 85.2945 12.9934 85.8148C13.1524 86.1328 13.4993 86.4797 13.8462 86.682L14.4243 87H36.9856C59.3302 87 59.5614 87 60.1251 86.7109C60.5009 86.523 60.8044 86.2195 60.9923 85.8437C61.2814 85.2945 61.2814 85.0199 61.2814 71.9976V58.7297L61.9751 58.484C63.9552 57.7757 66.629 55.9113 68.5513 53.9168C71.1529 51.214 72.8294 47.991 73.6677 44.0597C74.0146 42.3832 74.029 38.5531 73.6677 36.8476C72.815 32.7429 71.1529 29.6644 68.2189 26.7304C66.4267 24.9238 65.0247 23.912 62.9435 22.9003C60.3419 21.6429 58.2028 21.137 54.922 20.9925L52.6673 20.9058L52.2482 20.3421C51.4677 19.3015 49.0829 17.1191 47.8255 16.2808C45.672 14.8644 43.2149 13.8382 40.7146 13.3612C39.2837 13.0722 35.8583 12.971 34.4708 13.1589ZM40.4689 17.7405C42.2755 18.2175 43.7931 18.8679 45.2095 19.7929C49.2274 22.38 51.829 26.8027 52.1181 31.4855C52.1614 32.2515 52.306 33.1187 52.436 33.4222C52.6962 34.0726 53.6212 34.6796 54.3294 34.6796C55.081 34.6796 55.8903 34.1738 56.2372 33.4945C56.5263 32.9452 56.5407 32.7285 56.454 31.3988C56.3528 29.7222 56.0638 28.1757 55.5579 26.5859C55.37 25.9933 55.211 25.4441 55.211 25.3863C55.211 25.2128 56.6564 25.4007 58.0872 25.7476C63.565 27.0628 67.6841 31.2109 69.2739 36.9921C69.7075 38.582 69.6931 42.3542 69.2595 43.973C67.7997 49.3062 64.0708 53.3386 59.1568 54.8851C58.5931 55.073 57.9427 55.3476 57.7403 55.5211C56.9454 56.1425 56.9454 56.0703 56.9454 65.3926V73.9922H37.0001H17.0548V65.3926C17.0548 56.0703 17.0548 56.1425 16.2743 55.5211C16.0575 55.3621 15.4505 55.0875 14.9302 54.914C9.84266 53.2664 6.21492 49.3496 4.7407 43.9296C4.2782 42.2675 4.29266 38.6976 4.75516 36.9343C6.21492 31.312 10.4641 27.0628 15.913 25.7476C17.3872 25.3863 18.7892 25.2128 18.7892 25.4007C18.7892 25.4585 18.6302 25.9933 18.4278 26.5859C17.9653 27.9589 17.6474 29.6066 17.5317 31.3699C17.4161 33.1476 17.6474 33.7835 18.5724 34.3328C19.3095 34.7519 19.9165 34.7808 20.6681 34.3906C21.4919 33.9714 21.7665 33.3355 21.8677 31.5722C22.2579 25.4152 26.3481 20.0964 32.1872 18.1597C33.0399 17.8706 34.1673 17.5816 34.6876 17.4948C36.104 17.278 39.1825 17.4081 40.4689 17.7405ZM56.9454 80.4961V82.6641H37.0001H17.0548V80.4961V78.3281H37.0001H56.9454V80.4961Z" fill="#116131"/>
<path d="M35.9594 40.909C35.627 41.0824 35.2945 41.4148 35.1211 41.7617C34.8465 42.2965 34.832 42.6 34.832 48.5547C34.832 54.3793 34.8465 54.8129 35.1066 55.3187C35.4246 55.9402 36.3207 56.5039 36.9855 56.5039C37.7227 56.5039 38.5465 55.998 38.8789 55.3477C39.1535 54.8129 39.168 54.5094 39.168 48.5547C39.168 42.6 39.1535 42.2965 38.8789 41.7617C38.3441 40.7066 37.0434 40.3309 35.9594 40.909Z" fill="#116131"/>
<path d="M19.4973 42.3976C18.8324 42.8601 18.4422 43.7562 18.5723 44.5656C18.8469 46.3578 19.7719 48.8437 20.8269 50.6359C22.2723 53.1074 24.9316 56.0558 26.0012 56.3738C27.6344 56.8652 29.1808 55.4054 28.7328 53.8011C28.6316 53.4398 28.1402 52.8183 27.1863 51.8211C24.9461 49.4797 23.7176 47.3695 23.0383 44.6812C22.8504 43.9152 22.5902 43.1347 22.4601 42.9468C21.8531 42.0363 20.4367 41.7617 19.4973 42.3976Z" fill="#116131"/>
<path d="M52.3782 42.1953C51.9735 42.3542 51.3231 43.1492 51.2219 43.6117C50.4559 47.0804 49.3141 49.205 46.8137 51.8066C45.2672 53.4109 45.0071 53.9312 45.2672 54.8707C45.5563 55.9546 46.6547 56.6484 47.7387 56.446C49.2129 56.1714 52.6239 52.1246 54.0403 48.9593C54.604 47.7019 55.1676 45.9964 55.3555 44.9269C55.5723 43.7562 55.2977 42.9324 54.5172 42.4121C53.968 42.0363 52.9997 41.9351 52.3782 42.1953Z" fill="#116131"/>
<path d="M131.295 66.824H111.907L108.799 76H95.5527L114.349 24.052H129.001L147.797 76H134.403L131.295 66.824ZM128.039 57.056L121.601 38.038L115.237 57.056H128.039ZM166.121 24.052V76H153.467V24.052H166.121ZM188.727 49.952C188.727 44.8213 189.837 40.258 192.057 36.262C194.277 32.2167 197.36 29.084 201.307 26.864C205.303 24.5947 209.817 23.46 214.849 23.46C221.016 23.46 226.294 25.088 230.685 28.344C235.076 31.6 238.011 36.04 239.491 41.664H225.579C224.543 39.4933 223.063 37.8407 221.139 36.706C219.264 35.5713 217.118 35.004 214.701 35.004C210.804 35.004 207.646 36.3607 205.229 39.074C202.812 41.7873 201.603 45.4133 201.603 49.952C201.603 54.4907 202.812 58.1167 205.229 60.83C207.646 63.5433 210.804 64.9 214.701 64.9C217.118 64.9 219.264 64.3327 221.139 63.198C223.063 62.0633 224.543 60.4107 225.579 58.24H239.491C238.011 63.864 235.076 68.304 230.685 71.56C226.294 74.7667 221.016 76.37 214.849 76.37C209.817 76.37 205.303 75.26 201.307 73.04C197.36 70.7707 194.277 67.638 192.057 63.642C189.837 59.646 188.727 55.0827 188.727 49.952ZM272.572 34.264C277.308 34.264 281.107 35.8427 283.968 39C286.83 42.108 288.26 46.4 288.26 51.876V76H275.68V53.578C275.68 50.8153 274.965 48.6693 273.534 47.14C272.104 45.6107 270.18 44.846 267.762 44.846C265.345 44.846 263.421 45.6107 261.99 47.14C260.56 48.6693 259.844 50.8153 259.844 53.578V76H247.19V21.24H259.844V40.258C261.127 38.4327 262.878 36.9773 265.098 35.892C267.318 34.8067 269.81 34.264 272.572 34.264ZM335.928 54.688C335.928 55.872 335.854 57.1053 335.706 58.388H307.068C307.265 60.9533 308.079 62.9267 309.51 64.308C310.99 65.64 312.79 66.306 314.912 66.306C318.069 66.306 320.264 64.974 321.498 62.31H334.966C334.275 65.0233 333.017 67.4653 331.192 69.636C329.416 71.8067 327.171 73.5087 324.458 74.742C321.744 75.9753 318.71 76.592 315.356 76.592C311.31 76.592 307.709 75.7287 304.552 74.002C301.394 72.2753 298.928 69.8087 297.152 66.602C295.376 63.3953 294.488 59.646 294.488 55.354C294.488 51.062 295.351 47.3127 297.078 44.106C298.854 40.8993 301.32 38.4327 304.478 36.706C307.635 34.9793 311.261 34.116 315.356 34.116C319.352 34.116 322.904 34.9547 326.012 36.632C329.12 38.3093 331.537 40.702 333.264 43.81C335.04 46.918 335.928 50.544 335.928 54.688ZM322.978 51.358C322.978 49.1873 322.238 47.4607 320.758 46.178C319.278 44.8953 317.428 44.254 315.208 44.254C313.086 44.254 311.286 44.8707 309.806 46.104C308.375 47.3373 307.487 49.0887 307.142 51.358H322.978ZM363.273 45.216H356.465V76H343.811V45.216H339.223V34.708H343.811V33.524C343.811 28.4427 345.267 24.5947 348.177 21.98C351.088 19.316 355.355 17.984 360.979 17.984C361.917 17.984 362.607 18.0087 363.051 18.058V28.788C360.634 28.64 358.932 28.9853 357.945 29.824C356.959 30.6627 356.465 32.1673 356.465 34.338V34.708H363.273V45.216Z" fill="#116131"/>
</g>
<defs>
<clipPath id="clip0_15_292">
<rect width="376" height="100" fill="white"/>
</clipPath>
</defs>
</svg>
