<svg width="506" height="100" viewBox="0 0 506 100" fill="none" xmlns="http://www.w3.org/2000/svg">
<g clip-path="url(#clip0_40_347)">
<path d="M35.4026 12.1632C32.137 12.6085 28.9456 13.8702 26.244 15.8148C25.2198 16.5569 22.9041 18.7835 22.1768 19.7335C21.8948 20.1046 21.8354 20.1195 19.6682 20.2085C17.219 20.2976 15.7643 20.5351 13.7159 21.2179C10.7026 22.1976 8.35726 23.682 5.93773 26.1015C2.92444 29.0999 1.21741 32.2765 0.34163 36.4921C-0.0294639 38.2437 -0.0146201 42.1773 0.34163 43.8992C0.965068 46.7789 1.82601 48.9164 3.34007 51.2023C5.4182 54.3789 8.93617 57.3328 12.1573 58.6093L13.0627 58.9804V72.607C13.0627 85.6844 13.0776 86.2484 13.3448 86.7828C13.508 87.1094 13.8643 87.4656 14.2205 87.6734L14.8143 88H37.9854C60.9339 88 61.1714 88 61.7503 87.7031C62.1362 87.5102 62.4479 87.1984 62.6409 86.8125C62.9378 86.2484 62.9378 85.9664 62.9378 72.5922V58.9656L63.6503 58.7132C65.6839 57.9859 68.43 56.0711 70.4042 54.0226C73.0761 51.2468 74.7979 47.9367 75.6589 43.8992C76.0151 42.1773 76.03 38.2437 75.6589 36.4921C74.7831 32.2765 73.0761 29.1148 70.0628 26.1015C68.2221 24.246 66.7823 23.207 64.6448 22.1679C61.9729 20.8765 59.776 20.357 56.4065 20.2085L54.0909 20.1195L53.6604 19.5405C52.8589 18.4718 50.4096 16.2304 49.1182 15.3694C46.9065 13.9148 44.3831 12.8608 41.8151 12.371C40.3456 12.0741 36.8276 11.9702 35.4026 12.1632ZM41.5627 16.8687C43.4182 17.3585 44.9768 18.0265 46.4315 18.9765C50.5581 21.6335 53.2299 26.1757 53.5268 30.9851C53.5714 31.7718 53.7198 32.6624 53.8534 32.9742C54.1206 33.6421 55.0706 34.2656 55.7979 34.2656C56.5698 34.2656 57.401 33.746 57.7573 33.0484C58.0542 32.4843 58.069 32.2617 57.9799 30.896C57.876 29.1741 57.5792 27.5859 57.0596 25.9531C56.8667 25.3445 56.7034 24.7804 56.7034 24.721C56.7034 24.5429 58.1878 24.7359 59.6573 25.0921C65.2831 26.4429 69.5135 30.7031 71.1464 36.6406C71.5917 38.2734 71.5768 42.1476 71.1315 43.8101C69.6323 49.2875 65.8026 53.4289 60.7557 55.0171C60.1768 55.2101 59.5089 55.4921 59.301 55.6703C58.4846 56.3086 58.4846 56.2343 58.4846 65.8086V74.6406H38.0002H17.5159V65.8086C17.5159 56.2343 17.5159 56.3086 16.7143 55.6703C16.4916 55.507 15.8682 55.225 15.3338 55.0468C10.1088 53.3546 6.38304 49.332 4.86898 43.7656C4.39398 42.0585 4.40882 38.3921 4.88382 36.5812C6.38304 30.807 10.7471 26.4429 16.3432 25.0921C17.8573 24.721 19.2971 24.5429 19.2971 24.7359C19.2971 24.7952 19.1338 25.3445 18.926 25.9531C18.451 27.3632 18.1245 29.0554 18.0057 30.8663C17.887 32.6921 18.1245 33.3452 19.0745 33.9093C19.8315 34.3398 20.4549 34.3695 21.2268 33.9687C22.0729 33.5382 22.3549 32.8851 22.4588 31.0742C22.8596 24.7507 27.0604 19.2882 33.0573 17.2991C33.9331 17.0023 35.0909 16.7054 35.6252 16.6163C37.0799 16.3937 40.2417 16.5273 41.5627 16.8687ZM58.4846 81.3203V83.5469H38.0002H17.5159V81.3203V79.0937H38.0002H58.4846V81.3203Z" fill="#116131"/>
<path d="M36.9312 40.6633C36.5898 40.8414 36.2484 41.1828 36.0703 41.5391C35.7883 42.0883 35.7734 42.4 35.7734 48.5156C35.7734 54.4977 35.7883 54.943 36.0555 55.4625C36.382 56.1008 37.3023 56.6797 37.9852 56.6797C38.7422 56.6797 39.5883 56.1602 39.9297 55.4922C40.2117 54.943 40.2266 54.6312 40.2266 48.5156C40.2266 42.4 40.2117 42.0883 39.9297 41.5391C39.3805 40.4555 38.0445 40.0695 36.9312 40.6633Z" fill="#116131"/>
<path d="M20.0244 42.1922C19.3416 42.6672 18.9408 43.5875 19.0744 44.4188C19.3564 46.2594 20.3064 48.8125 21.39 50.6531C22.8744 53.1914 25.6056 56.2195 26.7041 56.5461C28.3814 57.0508 29.9697 55.5516 29.5095 53.9039C29.4056 53.5328 28.901 52.8945 27.9213 51.8703C25.6205 49.4656 24.3588 47.2985 23.6611 44.5375C23.4681 43.7508 23.201 42.9492 23.0674 42.7563C22.4439 41.8211 20.9892 41.5391 20.0244 42.1922Z" fill="#116131"/>
<path d="M53.7939 41.9843C53.3783 42.1476 52.7103 42.964 52.6064 43.439C51.8197 47.0015 50.6471 49.1836 48.0791 51.8554C46.4908 53.5031 46.2236 54.0375 46.4908 55.0023C46.7877 56.1156 47.9158 56.8281 49.0291 56.6203C50.5431 56.3382 54.0463 52.182 55.501 48.9312C56.0799 47.6398 56.6588 45.8882 56.8517 44.7898C57.0744 43.5875 56.7924 42.7414 55.9908 42.207C55.4267 41.8211 54.4322 41.7171 53.7939 41.9843Z" fill="#116131"/>
<path d="M132.7 20.925C138.99 20.925 144.487 22.1433 149.19 24.58C153.95 26.96 157.605 30.4167 160.155 34.95C162.762 39.4267 164.065 44.6683 164.065 50.675C164.065 56.6817 162.762 61.895 160.155 66.315C157.605 70.735 153.95 74.135 149.19 76.515C144.487 78.8383 138.99 80 132.7 80H113.405V20.925H132.7ZM132.7 72.095C139.613 72.095 144.912 70.225 148.595 66.485C152.278 62.745 154.12 57.475 154.12 50.675C154.12 43.8183 152.278 38.4633 148.595 34.61C144.912 30.7567 139.613 28.83 132.7 28.83H123.095V72.095H132.7ZM178.549 26.96C176.792 26.96 175.319 26.365 174.129 25.175C172.939 23.985 172.344 22.5117 172.344 20.755C172.344 18.9983 172.939 17.525 174.129 16.335C175.319 15.145 176.792 14.55 178.549 14.55C180.249 14.55 181.694 15.145 182.884 16.335C184.074 17.525 184.669 18.9983 184.669 20.755C184.669 22.5117 184.074 23.985 182.884 25.175C181.694 26.365 180.249 26.96 178.549 26.96ZM183.309 33.165V80H173.619V33.165H183.309ZM212.981 80.765C209.298 80.765 205.983 80.1133 203.036 78.81C200.146 77.45 197.851 75.6367 196.151 73.37C194.451 71.0467 193.544 68.4683 193.431 65.635H203.461C203.631 67.6183 204.566 69.29 206.266 70.65C208.023 71.9533 210.204 72.605 212.811 72.605C215.531 72.605 217.628 72.095 219.101 71.075C220.631 69.9983 221.396 68.6383 221.396 66.995C221.396 65.2383 220.546 63.935 218.846 63.085C217.203 62.235 214.568 61.3 210.941 60.28C207.428 59.3167 204.566 58.3817 202.356 57.475C200.146 56.5683 198.219 55.18 196.576 53.31C194.989 51.44 194.196 48.975 194.196 45.915C194.196 43.4217 194.933 41.155 196.406 39.115C197.879 37.0183 199.976 35.375 202.696 34.185C205.473 32.995 208.646 32.4 212.216 32.4C217.543 32.4 221.821 33.76 225.051 36.48C228.338 39.1433 230.094 42.7983 230.321 47.445H220.631C220.461 45.3483 219.611 43.6767 218.081 42.43C216.551 41.1833 214.483 40.56 211.876 40.56C209.326 40.56 207.371 41.0417 206.011 42.005C204.651 42.9683 203.971 44.2433 203.971 45.83C203.971 47.0767 204.424 48.125 205.331 48.975C206.238 49.825 207.343 50.505 208.646 51.015C209.949 51.4683 211.876 52.0633 214.426 52.8C217.826 53.7067 220.603 54.6417 222.756 55.605C224.966 56.5117 226.864 57.8717 228.451 59.685C230.038 61.4983 230.859 63.9067 230.916 66.91C230.916 69.5733 230.179 71.9533 228.706 74.05C227.233 76.1467 225.136 77.79 222.416 78.98C219.753 80.17 216.608 80.765 212.981 80.765ZM238.106 56.54C238.106 51.7233 239.069 47.5017 240.996 43.875C242.979 40.1917 245.699 37.3583 249.156 35.375C252.613 33.3917 256.579 32.4 261.056 32.4C266.723 32.4 271.398 33.76 275.081 36.48C278.821 39.1433 281.343 42.9683 282.646 47.955H272.191C271.341 45.6317 269.981 43.8183 268.111 42.515C266.241 41.2117 263.889 40.56 261.056 40.56C257.089 40.56 253.916 41.9767 251.536 44.81C249.213 47.5867 248.051 51.4967 248.051 56.54C248.051 61.5833 249.213 65.5217 251.536 68.355C253.916 71.1883 257.089 72.605 261.056 72.605C266.666 72.605 270.378 70.14 272.191 65.21H282.646C281.286 69.97 278.736 73.7667 274.996 76.6C271.256 79.3767 266.609 80.765 261.056 80.765C256.579 80.765 252.613 79.7733 249.156 77.79C245.699 75.75 242.979 72.9167 240.996 69.29C239.069 65.6067 238.106 61.3567 238.106 56.54ZM312.568 80.765C308.148 80.765 304.153 79.7733 300.583 77.79C297.013 75.75 294.208 72.9167 292.168 69.29C290.128 65.6067 289.108 61.3567 289.108 56.54C289.108 51.78 290.156 47.5583 292.253 43.875C294.35 40.1917 297.211 37.3583 300.838 35.375C304.465 33.3917 308.516 32.4 312.993 32.4C317.47 32.4 321.521 33.3917 325.148 35.375C328.775 37.3583 331.636 40.1917 333.733 43.875C335.83 47.5583 336.878 51.78 336.878 56.54C336.878 61.3 335.801 65.5217 333.648 69.205C331.495 72.8883 328.548 75.75 324.808 77.79C321.125 79.7733 317.045 80.765 312.568 80.765ZM312.568 72.35C315.061 72.35 317.385 71.755 319.538 70.565C321.748 69.375 323.533 67.59 324.893 65.21C326.253 62.83 326.933 59.94 326.933 56.54C326.933 53.14 326.281 50.2783 324.978 47.955C323.675 45.575 321.946 43.79 319.793 42.6C317.64 41.41 315.316 40.815 312.823 40.815C310.33 40.815 308.006 41.41 305.853 42.6C303.756 43.79 302.085 45.575 300.838 47.955C299.591 50.2783 298.968 53.14 298.968 56.54C298.968 61.5833 300.243 65.4933 302.793 68.27C305.4 70.99 308.658 72.35 312.568 72.35ZM364.512 71.33L377.772 33.165H388.057L370.207 80H358.647L340.882 33.165H351.252L364.512 71.33ZM438.257 55.435C438.257 57.1917 438.143 58.7783 437.917 60.195H402.132C402.415 63.935 403.803 66.9383 406.297 69.205C408.79 71.4717 411.85 72.605 415.477 72.605C420.69 72.605 424.373 70.4233 426.527 66.06H436.982C435.565 70.3667 432.987 73.9083 429.247 76.685C425.563 79.405 420.973 80.765 415.477 80.765C411 80.765 406.977 79.7733 403.407 77.79C399.893 75.75 397.117 72.9167 395.077 69.29C393.093 65.6067 392.102 61.3567 392.102 56.54C392.102 51.7233 393.065 47.5017 394.992 43.875C396.975 40.1917 399.723 37.3583 403.237 35.375C406.807 33.3917 410.887 32.4 415.477 32.4C419.897 32.4 423.835 33.3633 427.292 35.29C430.748 37.2167 433.44 39.9367 435.367 43.45C437.293 46.9067 438.257 50.9017 438.257 55.435ZM428.142 52.375C428.085 48.805 426.81 45.9433 424.317 43.79C421.823 41.6367 418.735 40.56 415.052 40.56C411.708 40.56 408.847 41.6367 406.467 43.79C404.087 45.8867 402.67 48.7483 402.217 52.375H428.142ZM457.433 39.965C458.849 37.585 460.719 35.7433 463.043 34.44C465.423 33.08 468.228 32.4 471.458 32.4V42.43H468.993C465.196 42.43 462.306 43.3933 460.323 45.32C458.396 47.2467 457.433 50.59 457.433 55.35V80H447.743V33.165H457.433V39.965Z" fill="#116131"/>
</g>
<defs>
<clipPath id="clip0_40_347">
<rect width="506" height="100" fill="white"/>
</clipPath>
</defs>
</svg>
