<svg width="180" height="180" viewBox="0 0 180 180" fill="none" xmlns="http://www.w3.org/2000/svg">
<path d="M83.8488 0.886932L83.8484 0.886993C76.1196 1.94092 68.5678 4.92644 62.1735 9.52895L62.1722 9.52988C60.9428 10.4207 58.9662 12.1796 57.0951 13.9811C55.2254 15.7813 53.4195 17.6638 52.5428 18.8089L52.5417 18.8103C52.3743 19.0305 52.2841 19.1352 52.1715 19.2135C52.0651 19.2874 51.9023 19.3612 51.5641 19.4257C50.8587 19.5603 49.6047 19.6206 47.045 19.7258C47.0446 19.7258 47.0442 19.7258 47.0438 19.7258L47.0644 20.2254C41.328 20.434 37.921 20.9902 33.1234 22.5894L83.8488 0.886932ZM83.8488 0.886932C85.5607 0.655121 88.4893 0.60437 91.4019 0.695786C94.3135 0.787186 97.2675 1.02248 99.0318 1.37863M83.8488 0.886932L32.9672 22.1145C25.8281 24.4358 20.269 27.9574 14.5526 33.6738C7.42535 40.7662 3.38088 48.294 1.31018 58.2606C0.864586 60.3646 0.656354 63.7353 0.660711 67.064C0.66507 70.3938 0.882275 73.7458 1.3099 75.8126L1.31083 75.8171L1.31085 75.8171C2.78244 82.6145 4.82068 87.6798 8.40472 93.0912C13.3224 100.607 21.6382 107.596 29.2861 110.628C29.287 110.628 29.2878 110.629 29.2887 110.629L31.0937 111.369V142.948C31.0937 158.259 31.1023 166.253 31.1894 170.575C31.2756 174.856 31.4334 175.626 31.807 176.373C32.2407 177.24 33.1516 178.141 34.0535 178.667L34.0644 178.673L34.0644 178.673L35.4551 179.438L35.5676 179.5H35.696H89.9651H89.9757C116.84 179.5 130.418 179.5 137.448 179.413C140.959 179.37 142.854 179.304 143.959 179.205C144.513 179.155 144.888 179.094 145.177 179.017C145.476 178.938 145.669 178.844 145.851 178.751C146.849 178.251 147.656 177.445 148.156 176.447C148.566 175.665 148.733 175.039 148.819 170.827C148.906 166.576 148.906 158.577 148.906 142.93V142.913V111.352L150.242 110.879L150.243 110.878C155.099 109.141 161.593 104.604 166.253 99.7684L166.254 99.7682C172.58 93.1953 176.655 85.3568 178.689 75.8156L178.69 75.8126C179.118 73.7458 179.335 70.3938 179.339 67.064C179.343 63.7348 179.135 60.3635 178.689 58.2596C176.619 48.293 172.574 40.8011 165.449 33.6752C161.101 29.2927 157.684 26.8248 152.623 24.3648L152.622 24.3643C146.295 21.3061 141.081 20.0761 133.131 19.7259L133.129 19.7257L127.944 19.5264L127.079 18.3626L127.078 18.3609C126.109 17.0698 124.176 15.1054 122.127 13.2254C120.074 11.3422 117.861 9.50531 116.317 8.47575L116.314 8.47403C111.084 5.0338 105.114 2.53925 99.0318 1.37863M99.0318 1.37863C99.0306 1.37842 99.0295 1.3782 99.0284 1.37799L98.9347 1.869L99.0337 1.37903C99.0331 1.37889 99.0324 1.37877 99.0318 1.37863ZM53.6003 45.6738C54.539 30.8637 64.3777 18.0699 78.423 13.4113L54.0994 45.7042M53.6003 45.6738L54.0995 45.7025C54.0995 45.703 54.0994 45.7036 54.0994 45.7042M53.6003 45.6738C53.3569 49.9152 52.6964 51.4449 50.7148 52.4531L53.6003 45.6738ZM54.0994 45.7042C55.0257 31.0971 64.7299 18.4799 78.5804 13.8859L78.5835 13.8849C80.6152 13.1961 83.2976 12.5093 84.517 12.3057C86.1724 12.0529 88.835 11.9993 91.4867 12.1117C94.1418 12.2244 96.7224 12.5009 98.2167 12.8867C102.518 14.0222 106.117 15.5666 109.473 17.7585L109.476 17.7602C119.009 23.8983 125.18 34.393 125.866 45.496C125.919 46.4353 126.034 47.4341 126.176 48.2931C126.314 49.133 126.486 49.8882 126.668 50.3155C127.032 51.221 127.83 52.0463 128.727 52.6398C129.627 53.2353 130.704 53.6484 131.684 53.6484C133.684 53.6484 135.799 52.3226 136.717 50.528C137.08 49.8374 137.292 49.3129 137.37 48.5309C137.445 47.7862 137.397 46.8114 137.293 45.2253C137.048 41.1518 136.345 37.3916 135.116 33.5285C134.891 32.8191 134.683 32.1366 134.533 31.6156C134.48 31.433 134.434 31.2717 134.398 31.1367C134.4 31.1366 134.403 31.1366 134.406 31.1366C134.752 31.1336 135.268 31.1738 135.91 31.2554C137.188 31.4178 138.899 31.7356 140.605 32.1492L140.606 32.1495C153.591 35.2672 163.37 45.0983 167.149 58.8435C167.652 60.6884 167.905 63.857 167.896 67.0794C167.888 70.3008 167.618 73.4899 167.114 75.3728C163.643 88.0511 154.789 97.6096 143.146 101.274L143.137 101.276C142.447 101.507 141.702 101.79 141.065 102.071C140.455 102.34 139.882 102.632 139.573 102.893C139.554 102.907 139.536 102.921 139.518 102.935C139.073 103.283 138.647 103.615 138.335 104.246C138.021 104.882 137.837 105.782 137.717 107.264C137.476 110.231 137.476 115.807 137.476 126.96V127.025V147.211H89.9999H42.5234V127.025V126.959C42.5234 115.806 42.5234 110.231 42.2871 107.265C42.1691 105.784 41.9888 104.884 41.6812 104.25C41.3749 103.618 40.9562 103.286 40.5183 102.938C40.498 102.922 40.4778 102.905 40.4575 102.889L40.4497 102.883L40.4417 102.877C40.1355 102.653 39.5986 102.374 39.0091 102.108C38.4083 101.836 37.7145 101.56 37.0709 101.346L37.0669 101.345C24.9999 97.4366 16.3901 88.1517 12.8855 75.2672L12.8848 75.2644C12.3469 73.3316 12.0774 70.2394 12.0861 67.0778C12.0947 63.9186 12.3808 60.7599 12.9215 58.6987L12.9218 58.6975C16.3886 45.345 26.474 35.268 39.3942 32.1493L39.3959 32.1489C41.154 31.718 42.8637 31.4006 44.1262 31.247C44.7612 31.1698 45.2643 31.1364 45.5983 31.1462C45.6007 31.1462 45.6031 31.1463 45.6056 31.1464C45.5679 31.2806 45.5204 31.4426 45.4646 31.6271C45.31 32.1382 45.0945 32.8105 44.8529 33.5181L44.8522 33.5201C43.7241 36.8692 42.9523 40.8757 42.6717 45.1544L42.6717 45.1546C42.5321 47.3001 42.5932 48.8402 43.0121 50.0253C43.4448 51.2497 44.2389 52.0436 45.4185 52.744L45.4266 52.7488L45.4266 52.7487C46.3598 53.2793 47.2477 53.584 48.1652 53.6134C49.084 53.6429 49.9854 53.3949 50.9433 52.8978C52.0224 52.3484 52.7739 51.6329 53.2693 50.4722C53.7489 49.3483 53.9773 47.8309 54.0994 45.7042ZM42.5234 168.07H89.9999H137.476V163.355V158.641H89.9999H42.5234V163.355V168.07Z" fill="#116131" stroke="#116131"/>
<path d="M88.1973 69.1127C88.5776 69.1127 88.7679 68.8907 88.863 68.542C89.8457 63.2479 89.7824 63.1211 95.2983 62.0749C95.6787 62.0116 95.9006 61.7897 95.9006 61.4092C95.9006 61.0288 95.6787 60.8069 95.2983 60.7434C89.814 59.634 89.9725 59.5072 88.863 54.2765C88.7679 53.9278 88.5776 53.7058 88.1973 53.7058C87.8168 53.7058 87.6266 53.9278 87.5315 54.2765C86.422 59.5072 86.6122 59.634 81.0962 60.7434C80.7475 60.8069 80.4939 61.0288 80.4939 61.4092C80.4939 61.7897 80.7475 62.0116 81.0962 62.0749C86.6122 63.1846 86.5487 63.2479 87.5315 68.542C87.6266 68.8907 87.8168 69.1127 88.1973 69.1127ZM72.854 90.9231C73.4563 90.9231 73.8684 90.5426 73.9317 89.9721C75.073 81.5078 75.3583 81.5078 84.1079 79.8277C84.6785 79.7325 85.0905 79.3521 85.0905 78.7498C85.0905 78.1792 84.6785 77.7671 84.1079 77.672C75.3583 76.4674 75.0412 76.182 73.9317 67.5592C73.8684 66.9887 73.4563 66.5766 72.854 66.5766C72.2833 66.5766 71.8712 66.9887 71.8077 67.591C70.7617 76.0869 70.3177 76.0552 61.6317 77.672C61.0611 77.7988 60.6489 78.1792 60.6489 78.7498C60.6489 79.3838 61.0611 79.7325 61.7585 79.8277C70.3812 81.2225 70.7617 81.4445 71.8077 89.9087C71.8712 90.5426 72.2833 90.9231 72.854 90.9231ZM94.3473 126.016C95.1716 126.016 95.7739 125.414 95.9323 124.558C98.1831 107.186 100.624 104.555 117.806 102.652C118.694 102.557 119.296 101.892 119.296 101.067C119.296 100.243 118.694 99.6091 117.806 99.4824C100.624 97.5802 98.1831 94.9491 95.9323 77.5769C95.7739 76.721 95.1716 76.1503 94.3473 76.1503C93.5231 76.1503 92.9208 76.721 92.794 77.5769C90.5432 94.9491 88.0705 97.5802 70.92 99.4824C70.0008 99.6091 69.3985 100.243 69.3985 101.067C69.3985 101.892 70.0008 102.557 70.92 102.652C88.0387 104.903 90.4163 107.218 92.794 124.558C92.9208 125.414 93.5231 126.016 94.3473 126.016Z" fill="#116131"/>
</svg>
