<svg width="178" height="178" viewBox="0 0 178 178" fill="none" xmlns="http://www.w3.org/2000/svg">
<path d="M82.9159 0.382391C75.2675 1.42536 67.7929 4.38044 61.4656 8.93474C59.0667 10.673 53.6433 15.8879 51.9398 18.1129C51.2792 18.982 51.1402 19.0168 46.0644 19.2254C40.328 19.434 36.921 19.9902 32.1234 21.5894C25.0659 23.884 19.573 27.3605 13.9062 33.0273C6.84875 40.05 2.8507 47.4898 0.799529 57.3633C-0.0696112 61.4656 -0.0348456 70.6785 0.799529 74.7113C2.25969 81.4558 4.27609 86.4621 7.82219 91.816C12.6894 99.2558 20.9288 106.174 28.473 109.164L30.5937 110.033V141.948C30.5937 172.577 30.6284 173.898 31.2542 175.149C31.6366 175.914 32.471 176.748 33.3054 177.235L34.696 178H88.9652C142.713 178 143.269 178 144.625 177.305C145.529 176.853 146.259 176.123 146.711 175.219C147.406 173.898 147.406 173.237 147.406 141.913V109.998L149.075 109.407C153.838 107.704 160.269 103.219 164.893 98.4215C171.151 91.9203 175.184 84.1676 177.2 74.7113C178.035 70.6785 178.069 61.4656 177.2 57.3633C175.149 47.4898 171.151 40.0847 164.094 33.0273C159.783 28.6816 156.41 26.248 151.404 23.8144C145.146 20.7898 140.001 19.573 132.109 19.2254L126.686 19.0168L125.678 17.6609C123.8 15.1578 118.064 9.90817 115.039 7.89177C109.859 4.48474 103.949 2.01638 97.9347 0.86911C94.4929 0.173798 86.2534 -0.0695618 82.9159 0.382391ZM97.3437 11.4031C101.689 12.5504 105.34 14.1148 108.747 16.3398C118.412 22.5629 124.669 33.2011 125.365 44.4652C125.469 46.3078 125.817 48.3937 126.13 49.1238C126.755 50.6883 128.98 52.1484 130.684 52.1484C132.492 52.1484 134.439 50.9316 135.273 49.2976C135.968 47.9765 136.003 47.4551 135.794 44.2566C135.551 40.2238 134.856 36.5039 133.639 32.6797C133.187 31.2543 132.805 29.9332 132.805 29.7941C132.805 29.3769 136.281 29.8289 139.723 30.6633C152.899 33.8269 162.807 43.8047 166.632 57.7109C167.675 61.5351 167.64 70.609 166.597 74.5027C163.085 87.3312 154.116 97.0308 142.296 100.751C140.94 101.203 139.375 101.863 138.889 102.28C136.976 103.775 136.976 103.602 136.976 126.025V146.711H88.9999H41.0234V126.025C41.0234 103.602 41.0234 103.775 39.146 102.28C38.6245 101.898 37.1644 101.237 35.9128 100.82C23.6753 96.857 14.9491 87.4355 11.403 74.3984C10.2905 70.4004 10.3253 61.8133 11.4378 57.5719C14.9491 44.048 25.1702 33.8269 38.2769 30.6633C41.823 29.7941 45.1952 29.3769 45.1952 29.8289C45.1952 29.9679 44.8128 31.2543 44.3261 32.6797C43.2136 35.9824 42.4488 39.9457 42.1706 44.1871C41.8925 48.4633 42.4488 49.9929 44.6738 51.314C46.4468 52.3222 47.907 52.3918 49.7148 51.4531C51.6964 50.4449 52.357 48.9152 52.6003 44.6738C53.539 29.8636 63.3777 17.0699 77.423 12.4113C79.4741 11.716 82.1859 11.0207 83.4374 10.8121C86.8445 10.2906 94.2495 10.6035 97.3437 11.4031ZM136.976 162.355V167.57H88.9999H41.0234V162.355V157.141H88.9999H136.976V162.355Z" fill="#116131"/>
<path d="M86.4969 67.1324C85.6973 67.5496 84.8977 68.3492 84.4805 69.1836C83.8199 70.4699 83.7852 71.2 83.7852 85.5234C83.7852 99.534 83.8199 100.577 84.4457 101.794C85.2105 103.289 87.366 104.645 88.9652 104.645C90.7383 104.645 92.7199 103.428 93.5195 101.863C94.1801 100.577 94.2148 99.8469 94.2148 85.5234C94.2148 71.2 94.1801 70.4699 93.5195 69.1836C92.2332 66.6457 89.1043 65.7418 86.4969 67.1324Z" fill="#116131"/>
<path d="M46.8986 70.7133C45.2994 71.8258 44.3608 73.9812 44.6736 75.9281C45.3342 80.2391 47.5592 86.2188 50.0971 90.5297C53.5736 96.4746 59.9705 103.567 62.5432 104.332C66.4717 105.514 70.1916 102.002 69.1139 98.1434C68.8705 97.2742 67.6885 95.7793 65.394 93.3805C60.0053 87.7484 57.0502 82.6727 55.4162 76.2062C54.9643 74.3637 54.3385 72.4863 54.0256 72.0344C52.5654 69.8441 49.1584 69.1836 46.8986 70.7133Z" fill="#116131"/>
<path d="M125.991 70.2267C125.017 70.6091 123.453 72.5212 123.21 73.6337C121.367 81.9774 118.62 87.088 112.606 93.3458C108.886 97.2048 108.26 98.4564 108.886 100.716C109.581 103.324 112.224 104.992 114.831 104.506C118.377 103.845 126.582 94.1107 129.989 86.497C131.345 83.4724 132.701 79.37 133.152 76.7974C133.674 73.9814 133.013 71.9997 131.136 70.7481C129.815 69.8442 127.486 69.6009 125.991 70.2267Z" fill="#116131"/>
</svg>
